<svg width="60" height="56" viewBox="0 0 60 56" fill="none" xmlns="http://www.w3.org/2000/svg">
<path d="M47.5 39.0769C50.5379 38.5075 53.2382 36.9165 55.0767 34.6126C56.9152 32.3088 57.7608 29.4566 57.4493 26.6096C57.1377 23.7627 55.6913 21.1241 53.3908 19.2062C51.0903 17.2883 48.0999 16.2279 45 16.2308H41.85C41.0217 13.2707 39.4101 10.5469 37.1597 8.30381C34.9094 6.06072 32.0908 4.3686 28.9571 3.37937C25.8233 2.39014 22.4724 2.13476 19.2053 2.63616C15.9382 3.13757 12.8572 4.38006 10.2388 6.25209C7.62035 8.12412 5.54656 10.5671 4.20358 13.3616C2.8606 16.1562 2.29047 19.2149 2.54438 22.263C2.79829 25.3112 3.86828 28.2535 5.6583 30.8257C7.44832 33.3979 9.90233 35.5195 12.8 37" fill="#FAD882"/>
<path d="M47.5 39.0769C50.5379 38.5075 53.2382 36.9165 55.0767 34.6126C56.9152 32.3088 57.7608 29.4566 57.4493 26.6096C57.1377 23.7627 55.6913 21.1241 53.3908 19.2062C51.0903 17.2883 48.0999 16.2279 45 16.2308H41.85C41.0217 13.2707 39.4101 10.5469 37.1597 8.30381C34.9094 6.06072 32.0908 4.3686 28.9571 3.37937C25.8233 2.39014 22.4724 2.13476 19.2053 2.63616C15.9382 3.13757 12.8572 4.38006 10.2388 6.25209C7.62035 8.12412 5.54656 10.5671 4.20358 13.3616C2.8606 16.1562 2.29047 19.2149 2.54438 22.263C2.79829 25.3112 3.86828 28.2535 5.6583 30.8257C7.44832 33.3979 9.90233 35.5195 12.8 37" stroke="black" stroke-width="2" stroke-linecap="round" stroke-linejoin="round"/>
<path d="M32.5 25.4615L22.5 39.3077H37.5L27.5 53.1538" fill="#FAD882"/>
<path d="M32.5 25.4615L22.5 39.3077H37.5L27.5 53.1538" stroke="black" stroke-width="2" stroke-linecap="round" stroke-linejoin="round"/>
</svg>
