<svg width="50" height="50" viewBox="0 0 50 50" fill="none" xmlns="http://www.w3.org/2000/svg">
<path d="M37.5 20.8333H34.875C34.0956 17.8146 32.485 15.075 30.2264 12.9258C27.9677 10.7767 25.1515 9.30416 22.0978 8.67559C19.044 8.04701 15.8752 8.28759 12.9514 9.36999C10.0276 10.4524 7.46594 12.3332 5.55763 14.7987C3.64933 17.2642 2.47084 20.2156 2.15608 23.3174C1.84133 26.4192 2.40292 29.5472 3.77706 32.3458C5.15119 35.1444 7.28277 37.5014 9.92957 39.1491C12.5764 40.7968 15.6323 41.669 18.75 41.6667H37.5C40.2627 41.6667 42.9122 40.5692 44.8657 38.6157C46.8192 36.6622 47.9167 34.0127 47.9167 31.25C47.9167 28.4873 46.8192 25.8378 44.8657 23.8843C42.9122 21.9308 40.2627 20.8333 37.5 20.8333Z" fill="#FAD882" stroke="#34475C" stroke-width="2" stroke-linecap="round" stroke-linejoin="round"/>
</svg>
